<svg width="30" height="32" viewBox="0 0 30 32" fill="none" xmlns="http://www.w3.org/2000/svg">
<path d="M15 7.675C10.1317 7.675 6.17411 11.3688 6.16741 15.9125C6.16741 17.4688 6.63616 18.9875 7.52009 20.2938L7.72768 20.6063L6.83705 23.6437L10.1786 22.825L10.5 23.0063C11.8527 23.7563 13.4062 24.1562 14.9933 24.1562H15C19.8616 24.1562 23.9263 20.4625 23.9263 15.9187C23.9263 13.7187 22.9085 11.65 21.2411 10.0938C19.567 8.53125 17.3571 7.675 15 7.675ZM20.1897 19.45C19.9687 20.0313 18.9107 20.5562 18.4018 20.625C17.558 20.7437 16.9018 20.6813 15.221 20.0063C12.5625 18.9313 10.8214 16.4312 10.6875 16.2687C10.5536 16.1062 9.60268 14.925 9.60268 13.7063C9.60268 12.4875 10.2857 11.8875 10.5335 11.6375C10.7746 11.3875 11.0625 11.325 11.2433 11.325C11.4174 11.325 11.5982 11.325 11.7522 11.3313C11.9129 11.3375 12.1339 11.275 12.3482 11.7563C12.5692 12.25 13.0982 13.4688 13.1652 13.5938C13.2321 13.7188 13.279 13.8625 13.1853 14.025C12.6763 14.975 12.1339 14.9375 12.4085 15.375C13.433 17.0187 14.4576 17.5875 16.0179 18.3188C16.2857 18.4438 16.4397 18.425 16.5937 18.2563C16.7478 18.0938 17.2567 17.5313 17.4308 17.2875C17.6049 17.0375 17.7857 17.0813 18.0268 17.1625C18.2679 17.2438 19.5737 17.8438 19.8415 17.9688C20.1094 18.0938 20.2835 18.1563 20.3504 18.2563C20.4107 18.375 20.4107 18.875 20.1897 19.45V19.45ZM26.7857 2H3.21429C1.43973 2 0 3.34375 0 5V27C0 28.6562 1.43973 30 3.21429 30H26.7857C28.5603 30 30 28.6562 30 27V5C30 3.34375 28.5603 2 26.7857 2ZM14.9933 25.825C13.2121 25.825 11.4643 25.4062 9.91741 24.6187L4.28571 26L5.79241 20.8625C4.86161 19.3625 4.37277 17.6562 4.37277 15.9062C4.37946 10.4437 9.14062 6 14.9933 6C17.8326 6 20.4978 7.03125 22.5067 8.90625C24.5089 10.7812 25.7143 13.2687 25.7143 15.9187C25.7143 21.3812 20.846 25.825 14.9933 25.825Z" fill="black"/>
</svg>
